<svg xmlns="http://www.w3.org/2000/svg" width="569.06" height="160" fill="none" aria-label="Oxagen horizontal lockup" viewBox="0 0 569.06 160"><title>Oxagen horizontal lockup</title><desc>Cored node O mark beside the Oxagen wordmark.</desc><style>:root{color:#0A0A0A}@media (prefers-color-scheme:dark){:root{color:#FFFFFF}}</style><circle cx="100.87" cy="62.72" r="30" stroke="currentColor" stroke-width="6.82"/><path stroke="currentColor" stroke-linecap="round" stroke-width="6.14" d="m122.08 41.51 22.42-22.42m-22.42 64.84 22.42 22.42M70.87 62.72H46.32"/><circle cx="100.87" cy="62.72" r="9.55" fill="currentColor"/><circle cx="149.96" cy="13.63" r="7.5" fill="currentColor"/><circle cx="149.96" cy="111.81" r="7.5" fill="currentColor"/><circle cx="39.5" cy="62.72" r="7.5" fill="currentColor"/><path fill="currentColor" d="M220.26 102.272q-7.104 0-12.432-3.264t-8.256-9.264-2.928-14.16 2.928-14.16 8.256-9.264 12.432-3.264 12.432 3.264 8.256 9.264 2.928 14.16-2.928 14.16-8.256 9.264-12.432 3.264m0-8.928q6.432 0 9.936-4.704t3.504-13.056-3.504-13.056-9.936-4.704-9.936 4.704-3.504 13.056 3.504 13.056 9.936 4.704m33.312 7.776 18.624-26.208-17.664-24.864h10.944l12.48 18.24 12.192-18.24h11.136l-17.568 25.056 18.432 26.016h-11.04l-13.152-19.584-13.248 19.584Zm74.976 1.152q-4.8 0-8.64-1.728t-6.096-4.896-2.256-7.392q0-6.528 3.984-10.128t12.048-5.232L344.1 69.44q0-11.904-10.368-11.904-4.8 0-7.488 2.208t-3.648 6.144l-10.176-.672q1.44-7.296 7.008-11.808t14.304-4.512q9.792 0 14.928 5.568t5.136 15.36v20.16q0 1.728.72 2.448t2.256.72h2.88v7.968q-.576.096-1.872.192t-2.544.096q-8.64 0-10.368-7.392l-.096-.192q-1.92 3.744-6.288 6.096t-9.936 2.352m1.44-7.968q7.008 0 10.56-3.6t3.552-9.648V77.12L329.892 80q-4.608.96-6.432 2.736t-1.824 4.752q0 3.264 2.208 5.04t6.144 1.776m62.784 22.368q-8.64 0-14.4-4.032t-7.392-10.752l10.176-.672q1.056 3.264 3.696 5.04t7.92 1.776q6.432 0 9.84-2.64t3.408-8.016v-7.488q-1.824 3.936-5.712 6.24t-8.976 2.304q-6.336 0-11.28-3.12t-7.776-8.688-2.832-12.768q0-7.488 2.736-13.104t7.632-8.736 11.136-3.12q5.28 0 9.408 2.448t5.952 6.672l.096-7.968h9.312v46.656q0 9.6-6.144 14.784t-16.8 5.184m-.096-26.88q5.952 0 9.6-4.224t3.744-11.808q.096-7.68-3.6-11.952t-9.744-4.272q-6.24 0-9.648 4.272T379.62 73.76q0 7.584 3.456 11.808t9.6 4.224m58.464 12.48q-7.2 0-12.528-3.312t-8.256-9.312-2.928-14.064 2.88-14.064 8.16-9.312 12.384-3.312q6.72 0 11.952 3.168t8.16 9.216 2.928 14.496v2.688h-36.384q.48 7.392 4.08 11.136t9.648 3.744q4.512 0 7.488-2.112t4.128-5.664l10.08.672q-2.208 7.296-7.872 11.664t-13.92 4.368m-13.536-31.584h25.728q-.48-6.528-3.936-9.696t-8.64-3.168q-5.376 0-8.832 3.264t-4.32 9.6m49.536 30.432V50.048h8.928l.192 9.216q2.016-5.28 6.336-7.824t9.696-2.544q5.664 0 9.456 2.544t5.712 6.912 1.92 9.84v32.928h-9.696V70.688q0-13.344-10.176-13.344-5.28 0-8.976 3.456t-3.696 10.08v30.24Z"/></svg>